<svg xmlns="http://www.w3.org/2000/svg" viewBox="0 0 1200 675" role="img" aria-labelledby="title desc">
  <title id="title">Backmatter Link Index plate</title>
  <desc id="desc">A dark archival desk with warm link lines connecting book pages and small brass markers.</desc>
  <rect width="1200" height="675" fill="#111315"/>
  <rect x="92" y="88" width="1016" height="499" rx="10" fill="#1c2023" stroke="#7a6040" stroke-width="3"/>
  <g fill="#f4efe6" opacity=".9">
    <rect x="160" y="152" width="210" height="300" rx="4"/>
    <rect x="495" y="112" width="210" height="300" rx="4"/>
    <rect x="830" y="182" width="210" height="300" rx="4"/>
  </g>
  <g fill="#262b2f">
    <rect x="190" y="195" width="150" height="14"/>
    <rect x="190" y="232" width="120" height="10"/>
    <rect x="190" y="260" width="142" height="10"/>
    <rect x="525" y="155" width="150" height="14"/>
    <rect x="525" y="192" width="118" height="10"/>
    <rect x="525" y="220" width="142" height="10"/>
    <rect x="860" y="225" width="150" height="14"/>
    <rect x="860" y="262" width="118" height="10"/>
    <rect x="860" y="290" width="142" height="10"/>
  </g>
  <g fill="none" stroke="#d98f3f" stroke-width="8" stroke-linecap="round">
    <path d="M370 300 C430 245 460 230 495 250"/>
    <path d="M705 250 C770 260 805 305 830 340"/>
    <path d="M600 412 C585 500 500 535 390 522"/>
  </g>
  <g fill="#f7c477">
    <circle cx="370" cy="300" r="17"/>
    <circle cx="495" cy="250" r="17"/>
    <circle cx="705" cy="250" r="17"/>
    <circle cx="830" cy="340" r="17"/>
    <circle cx="390" cy="522" r="17"/>
    <circle cx="600" cy="412" r="17"/>
  </g>
</svg>
